<?xml version="1.0" encoding="utf-8"?>
<svg width="159px" height="117px" viewBox="0 0 159 117" version="1.1" xmlns:xlink="http://www.w3.org/1999/xlink" xmlns="http://www.w3.org/2000/svg">
  <g id="Group-7">
    <path d="M128.867 45.6467L128.867 71.5667C128.867 72.4674 129.074 73.3207 129.489 74.1267C129.904 74.9326 130.479 75.6319 131.213 76.2244C131.948 76.817 132.796 77.2852 133.756 77.6289C134.716 77.9726 135.753 78.1444 136.867 78.1444C137.578 78.1444 138.342 77.9904 139.16 77.6822C139.978 77.3741 140.778 76.9533 141.56 76.42C142.342 75.8867 143.071 75.2585 143.747 74.5356C144.422 73.8126 144.997 73.0481 145.471 72.2422L145.471 45.6467L152.653 45.6467L152.653 82.0556L145.471 82.0556L145.471 75.2289C144.831 76.2719 144.031 77.2556 143.071 78.18C142.111 79.1044 141.074 79.9104 139.96 80.5978C138.846 81.2852 137.696 81.8304 136.511 82.2333C135.326 82.6363 134.2 82.8378 133.133 82.8378C131.545 82.8378 130.052 82.5415 128.653 81.9489C127.255 81.3563 126.034 80.5504 124.991 79.5311C123.948 78.5119 123.124 77.3148 122.52 75.94C121.916 74.5652 121.613 73.1074 121.613 71.5667L121.613 45.6467L128.867 45.6467ZM85.0267 45.6467L85.0267 71.5667C85.0267 72.4674 85.2341 73.3207 85.6489 74.1267C86.0637 74.9326 86.6385 75.6319 87.3733 76.2244C88.1081 76.817 88.9556 77.2852 89.9156 77.6289C90.8756 77.9726 91.9126 78.1444 93.0267 78.1444C93.7378 78.1444 94.5022 77.9904 95.32 77.6822C96.1378 77.3741 96.9378 76.9533 97.72 76.42C98.5022 75.8867 99.2311 75.2585 99.9067 74.5356C100.582 73.8126 101.157 73.0481 101.631 72.2422L101.631 45.6467L108.813 45.6467L108.813 82.0556L101.631 82.0556L101.631 75.2289C100.991 76.2719 100.191 77.2556 99.2311 78.18C98.2711 79.1044 97.2341 79.9104 96.12 80.5978C95.0059 81.2852 93.8563 81.8304 92.6711 82.2333C91.4859 82.6363 90.36 82.8378 89.2933 82.8378C87.7052 82.8378 86.2119 82.5415 84.8133 81.9489C83.4148 81.3563 82.1941 80.5504 81.1511 79.5311C80.1081 78.5119 79.2844 77.3148 78.68 75.94C78.0756 74.5652 77.7733 73.1074 77.7733 71.5667L77.7733 45.6467L85.0267 45.6467ZM33.3289 59.4422L33.3289 82.0556L25.4 82.0556L25.4 34.9089L33.3289 34.9089L33.3289 56.3844L57.0089 56.3844L57.0089 34.9089L64.9378 34.9089L64.9378 82.0556L57.0089 82.0556L57.0089 59.4422L33.3289 59.4422Z" id="Huu" fill="#000000" stroke="none" />
    <path d="M0 58.5C0 32.8188 20.8188 12 46.5 12C72.1812 12 93 32.8188 93 58.5C93 84.1812 72.1812 105 46.5 105C20.8188 105 0 84.1812 0 58.5Z" id="wwhite" fill="#FFFFFF" fill-rule="evenodd" stroke="none" />
    <path d="M46.5 12C20.8188 12 0 32.8188 0 58.5C0 84.1812 20.8188 105 46.5 105C63.4119 105 78.2152 95.9716 86.3529 82.4717Q85.5648 82.2673 84.8133 81.9489Q82.7156 81.06 81.1511 79.5311Q79.5867 78.0022 78.68 75.94Q77.7733 73.8778 77.7733 71.5667L77.7733 45.6467L85.0267 45.6467L85.0267 71.5667Q85.0267 72.9178 85.6489 74.1267Q86.2711 75.3356 87.3733 76.2244Q88.1337 76.8376 89.0547 77.2731C91.5913 71.5317 93 65.1803 93 58.5C93 32.8188 72.1812 12 46.5 12ZM33.3289 82.0556L33.3289 59.4422L57.0089 59.4422L57.0089 82.0556L64.9378 82.0556L64.9378 34.9089L57.0089 34.9089L57.0089 56.3844L33.3289 56.3844L33.3289 34.9089L25.4 34.9089L25.4 82.0556L33.3289 82.0556Z" id="Oval-2-Subtract" fill="#000000" fill-rule="evenodd" stroke="none" />
  </g>
</svg>